/* XPM */
static char*kwoodsave[]={
"22 22 9 1",
"# c #b0b0af",
"a c #e9e9e9",
"b c #989898",
"c c #bbbbbb",
"e c #a2a2a2",
"f c #000000",
". c None",
"d c #ffffff",
"g c #ff0000",
"......................",
"......................",
"......................",
"......................",
"....#aaaaaaaaaaaab....",
"....cdddddddddddde....",
"....cdffffddddddde....",
"....cdddddddddddde....",
"....cdfffffffdddde....",
"....cdddddddddddde...g",
"....cdfffffddffdde..gg",
"....cdddddddddddde.ggg",
"....cdffdfffffdddegggg",
"....cddddddddddddggggg",
"....cdffffffdfffgggggg",
"....cddddddddddggggggg",
"....cdddddddddgggggggg",
"....cdffffdddggggggggg",
"....cdddddddgggggggggg",
".....ffffffggggggggggg",
"..........gggggggggggg",
".........ggggggggggggg"};
