/* XPM */
static char * kwoodsetup_xpm[] = {
"32 32 13 1",
" 	c None",
".	c #EED8AE",
"+	c #000000",
"@	c #FFFFFF",
"#	c #C3C3C3",
"$	c #DCDCDC",
"%	c #303030",
"&	c #585858",
"*	c #808080",
"=	c #A0A0A0",
"-	c #FFA858",
";	c #FFDCA8",
">	c #FFFFC0",
" ..++++++++++++++++++++++++++   ",
"  +@@@@@@@@@@@@@@@@@@@@@@@@@@+  ",
"  +@@@@@@@@@@@@@@@@@@@@@@@@@@+  ",
"  +@@@@@@@@@@@@@@@@@@@@@@@@@@+  ",
"  +@@@@@@@@@@@@@@@@@@@@@@@@@@+  ",
"  +@@@@@@@@@@@@@@@@@@@@@@@@@@+  ",
"  +@@@@@@@@@@@@@@@@@@@@@@@@@@+  ",
"  +@@@@@@@@@@@@@@@@@@@@@@@@@@+  ",
"  +@@@@@@@@@@@@@@@@@@@@@@@@@@+  ",
"  +@@@@@@@@@@@@@@@@@@@@@@@@@@+  ",
"  +@@@@@@@@@@@@@@@@@@@@@@@@@@+  ",
"  +@@@@@@@@@@@@@@@@@@@@@@@@@@+  ",
"  +@@@@@@@@@@@@@@@@@@+++@@@@@+  ",
"  +@@@@@@@@@@@@@@@@@+#@#+@@@@+  ",
"  +@@@@@@@@@@@@@@@@@+$@$+@@@@+  ",
"  +@@@@@@@@@@+++@@@%+###+%@@@++%",
"  +@@@@@@@@@+$@#+&+*$@@@$*+&+#@$",
"  +@@@@@@@@+=$$==$@#*&&&*#@$$=$$",
"  +@@@@@@@@+&#=$@=&&**=**&%=@$=#",
"  +@@@@@@@@+&&#$*&*----;--=&*$#&",
"  +@@@@@@@@@++$*&=--;-;-;;-=&*$+",
"  +@@@@@@@@@+$=*=--;-;;;;>;;=&=$",
"  +@@@@@&+++*$*=--;;;&%&;;>;-=*#",
"  +@@@@@+$@$=$*--;-;&%=%&;;>;-*$",
"  +@@@@+#$$#=$*-;;>;*#@#*;>;>-*@",
"  +@@@@+=$$$=$=-->;>;*%*;>@>;-=$",
"  +@@@@+%**=&#$*-;>;>;;;@@>>;=#$",
"  +@@@@@+&&&%*##*-;>>>@@@>>;*=@=",
"  +@@@@@@+++++=$=*-;>>>@>;;*=$#+",
"  +@@@@@@@@@+**#$=*=-;;;-==$@#**",
"  +@@@@@@@@+&#=*#$@$*===*$@$#*=#",
"   ++++++++%$@$=**#$$@@@$$#=*=$@"};
