/* XPM */
static char * kwoodexit_xpm[] = {
"32 32 3 1",
" 	c None",
".	c #FF0000",
"+	c #FFFFFF",
"                                ",
"            ........            ",
"         ..............         ",
"        ................        ",
"      ....................      ",
"     ......................     ",
"    ........................    ",
"    ........................    ",
"   ..........................   ",
"  ......++...........++.......  ",
"  ......+++.........+++.......  ",
"  .......+++.......+++........  ",
" .........+++.....+++.......... ",
" ..........+++...+++........... ",
" ...........+++.+++............ ",
" ............+++++............. ",
" .............+++.............. ",
" ............+++++............. ",
" ...........+++.+++............ ",
" ..........+++...+++........... ",
"  ........+++.....+++.........  ",
"  .......+++.......+++........  ",
"  ......+++.........+++.......  ",
"   .....++...........++......   ",
"    ........................    ",
"    ........................    ",
"     ......................     ",
"      ....................      ",
"        ................        ",
"         ..............         ",
"            ........            ",
"                                "};
