/* XPM */
static char * kwooddecrypt_xpm[] = {
"32 32 4 1",
" 	c None",
".	c #EED8AE",
"+	c #000000",
"@	c #FFFFFF",
" ..++++++++++++++++++++++++++   ",
"  +@@@@@@@@@@@@@@@@@@@@@@@@@@+  ",
"  +@@@@@@@@@@@@@@@@@@@@@@@@@@+  ",
"  +@@@@@@@@@@@@@@@@@@@@@@@@@@+  ",
"  +@@@@@@@@@@@@@@@@@@@@@@@@@@+  ",
"  +@@@@@@@@@@@++++@@@@@@@@@@@+  ",
"  +@@@@@@@@@++++++++@@@@@@@@@+  ",
"  +@@@@@@@@++++++++++@@@@@@@@+  ",
"  +@@@@@@@@++++++++++@@@@@@@@+  ",
"  +@@@@@@@++++++++++++@@@@@@@+  ",
"  +@@@@@@@++++++++++++@@@@@@@+  ",
"  +@@@@@@@@++++++++++@@@@@@@@+  ",
"  +@@@@@@@@@++++++++@@@@@@@@@+  ",
"  +@@@@@@@@@@++++++@@@@@@@@@@+  ",
"  +@@@@@@@@@@++++++@@@@@@@@@@+  ",
"  +@@@@@@@@@@++++++@@@@@@@@@@+  ",
"  +@@@@@@@@@@++++++@@@@@@@@@@+  ",
"  +@@@@@@@@@@++++++@@@@@@@@@@+  ",
"  +@@@@@@@@@@++++++@@@@@@@@@@+  ",
"  +@@@@@@@@@@++++++@@@@@@@@@@+  ",
"  +@@@@@@@@@@++++++@@@@@@@@@@+  ",
"  +@@@@@@@@@@++++++@@@@@@@@@@+  ",
"  +@@@@@@@@@@++++++@@@@@@@@@@+  ",
"  +@@@@@@@@@@@++++@@@@@@@@@@@+  ",
"  +@@@@@@@@@@@@@@@@@@@@@@@@@@+  ",
"  +@@@@@@@@@@@@@@@@@@@@@@@@@@+  ",
"  +@@@@@@@@@@@@@@@@@@@@@@@@@@+  ",
"  +@@@@@@@@@@@@@@@@@@@@@@@@@@+  ",
"  +@@@@@@@@@@@@@@@@@@@@@@@@@@+  ",
"  +@@@@@@@@@@@@@@@@@@@@@@@@@@+  ",
"  +@@@@@@@@@@@@@@@@@@@@@@@@@@+  ",
"   ++++++++++++++++++++++++++   "};
