/* XPM */
static char * kwoodencrypt_xpm[] = {
"32 32 18 1",
" 	c None",
".	c #EED8AE",
"+	c #000000",
"@	c #FFFFFF",
"#	c #797979",
"$	c #797900",
"%	c #BEBEBE",
"&	c #FFFF00",
"*	c #FFF769",
"=	c #FFF771",
"-	c #FFF761",
";	c #FFFF49",
">	c #FFFF51",
",	c #FFFF38",
"'	c #FFFF41",
")	c #FFF779",
"!	c #FFF786",
"~	c #FFF78E",
" ..++++++++++++++++++++++++++   ",
"  +@@@@@@@@@@@@@@+#@@@#+@@@@@+  ",
"  +@@@@@@@@@@@+####@###+###@@+  ",
"  +@@@@@@@@@++$%%%%+#%#+@@@#@+  ",
"  +@@@@@@@@+$$&&+++##%+++%%@#+  ",
"  +@@@@@@@+$%&&+@#++*#+##+%%@#  ",
"  +@@@@@@+$%&&&+%@++*=#%#+@%%@# ",
"  +@@@@@@+$%&+&+%%@+*=#@#+%%%@# ",
"  +@@@@@+$%&+&+&+##-*=#++%@%%@# ",
"  +@@@@@+$&%&+&+;>--*=##%@%%%@# ",
"  +@@@@@+$%&%&+&+>--*=#@#%@%%@# ",
"  +@@@@@+$&%&%&+&+--*=+@#@%%@#  ",
"  +@@@@@+$%&%,%;%---*+%@#%%@#+  ",
"  +@@@@@+$&%,';;>---#+%@#%@#@+  ",
"  +@@@@+$+#,''>>--##+%%@#@#@@+  ",
"  +@@@+$+#,'######++%%@#@#@@@+  ",
"  +@@+$+#'';++++++@%%@#%@#@@@+  ",
"  +@+$+#;;;+@+#%%@%%@##%%@#@@+  ",
"  ++$+#>>>#@@@+#@%%@#%#%%@#@@+  ",
"  +$+#----#@@@+##%@#+%#%#+@@@+  ",
" +$+#--$$#@@@@+%#%@#+%#%+@@@@+  ",
"+$+#**++#@@@@@+%#%%@#%#%@#@@@+  ",
"$+#===#@@@@@@@+%#%%@#%#%%@#@@+  ",
"+#))$$#@@@@@@@+%#%#++%#%#+@@@+  ",
"#!!++#@@@@@@@@+%#%+@+%#%+@@@@+  ",
"$$~#@@@@@@@@@@+%#%@#+%#%@#@@@+  ",
"++#@@@@@@@@@@@+%#%%@#%#%@#@@@+  ",
"  +@@@@@@@@@@@+%#%#++%%%##@@@+  ",
"  +@@@@@@@@@@@+%#%+#++%%+@@@@+  ",
"  +@@@@@@@@@@@+%#%@+@@++@@@@@+  ",
"  +@@@@@@@@@@@@+%%+@@@@@@@@@@+  ",
"   ++++++++++++++++++++++++++   "};
