/* XPM */
static char * kwoodtable_xpm[] = {
"32 32 6 1",
" 	c None",
".	c #EED8AE",
"+	c #000000",
"@	c #FFFFFF",
"#	c #827B00",
"$	c #C6C300",
" ..++++++++++++++++++++++++++   ",
"  +@@@@@@@@@@@@@@@@@@@@@@@@@@+  ",
"  +@@@@@@@@@@@@@@@@@@@@@@@@@@+  ",
"  +@@@@@@@@@@@@@@@@@@@@@@@@@@+  ",
"  +@@@@@@@@@@@@@@@@@@@@@@@@@@+  ",
"  +@@@@@@@@@@@@@@@@@@@@@@@@@@+  ",
"  +@@@@@@@@@@@@@@@@@@@@@@@@@@+  ",
"  +@@@@@@#################@@@+  ",
"  +@@@@@@#$$$$$$$$$$$$$$$$$@@+  ",
"  +@@@@@@#$$$$$$$$$$$$$$$$$@@+  ",
"  +@@@@@@#$$@#$@#$@#$@#$@#$@@+  ",
"  +@@@@@@#$$@#$@#$@#$@#$@#$@@+  ",
"  +@@@@@@#$$##$##$##$##$##$@@+  ",
"  +@@@@@@#$$$$$$$$$$$$$$$$$@@+  ",
"  +@@@@@@#$$@#$@#$@#$@#$@#$@@+  ",
"  +@@@@@@#$$@#$@#$@#$@#$@#$@@+  ",
"  +@@@@@@#$$##$##$##$##$##$@@+  ",
"  +@@@@@@#$$$$$$$$$$$$$$$$$@@+  ",
"  +@@@@@@#$$@#$@#$@#$@#$@#$@@+  ",
"  +@@@@@@#$$@#$@#$@#$@#$@#$@@+  ",
"  +@@@@@@#$$##$##$##$##$##$@@+  ",
"  +@@@@@@#$$$$$$$$$$$$$$$$$@@+  ",
"  +@@@@@@#$$@#$@#$@#$@#$@#$@@+  ",
"  +@@@@@@#$$@#$@#$@#$@#$@#$@@+  ",
"  +@@@@@@#$$##$##$##$##$##$@@+  ",
"  +@@@@@@#$$$$$$$$$$$$$$$$$@@+  ",
"  +@@@@@@#$$@#$@#$@#$@#$@#$@@+  ",
"  +@@@@@@#$$@#$@#$@#$@#$@#$@@+  ",
"  +@@@@@@#$$##$##$##$##$##$@@+  ",
"  +@@@@@@@$$$$$$$$$$$$$$$$$@@+  ",
"  +@@@@@@@@@@@@@@@@@@@@@@@@@@+  ",
"   ++++++++++++++++++++++++++   "};
