/* XPM */
static char * kwoodnew_xpm[] = {
"22 22 8 1",
" 	c None",
".	c #B0B0AF",
"+	c #E9E9E9",
"@	c #989898",
"#	c #BBBBBB",
"$	c #FFFFFF",
"%	c #A2A2A2",
"&	c #000000",
"                      ",
"                      ",
"                      ",
"                      ",
"    .++++++++++++@    ",
"    #$$$$$$$$$$$$%    ",
"    #$$$$$$$$$$$$%    ",
"    #$$$$$$$$$$$$%    ",
"    #$$$$$$$$$$$$%    ",
"    #$$$$$$$$$$$$%    ",
"    #$$$$$$$$$$$$%    ",
"    #$$$$$$$$$$$$%    ",
"    #$$$$$$$$$$$$%    ",
"    #$$$$$$$$$$$$%    ",
"    #$$$$$$$$$$$$%    ",
"    #$$$$$$$$$$$$%    ",
"    #$$$$$$$$$$$$%    ",
"    #$$$$$$$$$$$$%    ",
"    #$$$$$$$$$$$$%    ",
"     &&&&&&&&&&&&     ",
"                      ",
"                      "};
